<svg width="25" height="25" viewBox="0 0 25 25" fill="none" xmlns="http://www.w3.org/2000/svg">
<g clip-path="url(#clip0_1557_27)">
<g clip-path="url(#clip1_1557_27)">
<path fill-rule="evenodd" clip-rule="evenodd" d="M10.9057 13.4186L12.5108 14.5161L14.0581 13.4487L17.5263 16.8705C17.4348 16.9004 17.338 16.9155 17.2359 16.9159H7.78337C7.6586 16.9159 7.53949 16.8915 7.43002 16.8478L10.9057 13.4186ZM18.1814 10.6066V15.9704C18.1814 16.1105 18.1508 16.2432 18.0964 16.3629L14.6967 13.0086L18.1814 10.6066ZM6.83789 10.6366L10.2648 12.9802L6.89801 16.3027C6.85857 16.1964 6.83822 16.0838 6.83789 15.9704V10.6366ZM17.2359 8.4082C17.7578 8.4082 18.1814 8.83132 18.1814 9.35369V9.68605L12.5085 13.5967L6.83789 9.71838V9.35369C6.83789 8.83188 7.261 8.4082 7.78337 8.4082H17.2359Z" fill="black"/>
</g>
</g>
<defs>
<clipPath id="clip0_1557_27">
<rect width="15.8563" height="15.8563" fill="white" transform="translate(4.58203 4.73438)"/>
</clipPath>
<clipPath id="clip1_1557_27">
<rect width="11.3435" height="11.3435" fill="white" transform="translate(6.83789 6.99023)"/>
</clipPath>
</defs>
</svg>
