<svg width="24" height="25" viewBox="0 0 24 25" fill="none" xmlns="http://www.w3.org/2000/svg">
<g clip-path="url(#clip0_1557_8)">
<path d="M5.39752 12.5398C8.84612 11.0376 11.1452 10.0473 12.2947 9.56876C15.5807 8.20244 16.2626 7.96514 16.708 7.9571C16.806 7.95553 17.0241 7.97974 17.1664 8.09479C17.2847 8.19181 17.3179 8.32303 17.3346 8.41516C17.3493 8.5072 17.3697 8.71696 17.353 8.8807C17.1756 10.751 16.4049 15.2896 16.0131 17.3845C15.8487 18.2708 15.5215 18.568 15.2055 18.597C14.518 18.6602 13.9968 18.1431 13.3315 17.7072C12.291 17.0246 11.7033 16.5999 10.6924 15.9341C9.52438 15.1645 10.2821 14.7415 10.9474 14.0503C11.1212 13.8693 14.1484 11.1166 14.2057 10.8669C14.2131 10.8356 14.2205 10.7192 14.1502 10.6579C14.0819 10.5963 13.9802 10.6174 13.9063 10.634C13.8009 10.6577 12.1395 11.7569 8.91635 13.9316C8.44508 14.2558 8.01816 14.4138 7.63375 14.4055C7.21238 14.3964 6.3992 14.1667 5.79487 13.9704C5.05562 13.7296 4.46607 13.6023 4.51781 13.1933C4.54369 12.9804 4.83754 12.7625 5.39752 12.5398Z" fill="black"/>
</g>
<defs>
<clipPath id="clip0_1557_8">
<rect width="20.2519" height="20.2519" fill="white" transform="translate(1.74512 2.53711)"/>
</clipPath>
</defs>
</svg>
